<svg xmlns="http://www.w3.org/2000/svg" viewBox="0 0 65 65"><path fill="#9A7BAA" d="m64.124 37.073-1.833-.57a7.161 7.161 0 0 0-.305-1.585l1.489-1.211a.532.532 0 0 0 .108-.708l-1.46-2.212a.536.536 0 0 0-.695-.179l-1.701.894a6.97 6.97 0 0 0-1.334-.903l.196-1.911a.533.533 0 0 0-.424-.577l-2.597-.532a.533.533 0 0 0-.618.364l-.571 1.834a7.197 7.197 0 0 0-1.58.308l-1.215-1.493a.534.534 0 0 0-.709-.109l-2.212 1.461a.535.535 0 0 0-.179.694l.896 1.704a7.125 7.125 0 0 0-.903 1.332l-1.912-.196a.52.52 0 0 0-.578.424l-.532 2.598a.534.534 0 0 0 .365.617l1.834.571c.042.538.144 1.068.306 1.581l-1.491 1.213a.535.535 0 0 0-.108.709l1.46 2.213c.15.229.452.305.694.179l1.699-.892c.414.353.86.655 1.336.902l-.196 1.91a.535.535 0 0 0 .424.578l2.598.532a.534.534 0 0 0 .617-.364l.57-1.832a7.086 7.086 0 0 0 1.582-.308l1.214 1.491c.174.213.48.259.709.108l2.212-1.46a.536.536 0 0 0 .179-.695l-.895-1.701a6.98 6.98 0 0 0 .905-1.334l1.909.196a.534.534 0 0 0 .579-.424l.532-2.597a.536.536 0 0 0-.365-.62zm-7.248 2.907a3.43 3.43 0 0 1-2.596.5A3.432 3.432 0 0 1 52.089 39a3.459 3.459 0 0 1 .98-4.787 3.453 3.453 0 0 1 4.787.98 3.457 3.457 0 0 1-.98 4.787z"/><path fill="#88C057" d="m44.637 39.556-.409-2.038a.52.52 0 0 0-.576-.427l-1.421.14a5.78 5.78 0 0 0-.632-.939l.671-1.264a.533.533 0 0 0-.176-.695l-1.729-1.153a.533.533 0 0 0-.709.106l-.908 1.107a5.718 5.718 0 0 0-1.109-.22l-.419-1.369a.53.53 0 0 0-.617-.367l-2.039.408a.533.533 0 0 0-.426.576l.14 1.421a5.51 5.51 0 0 0-.941.632l-1.262-.67a.536.536 0 0 0-.696.176l-1.153 1.73a.535.535 0 0 0 .105.709l1.104.906c-.11.365-.183.737-.219 1.113l-1.365.418a.535.535 0 0 0-.368.616l.409 2.038a.52.52 0 0 0 .576.427l1.419-.139c.179.334.39.648.633.941L31.85 45a.533.533 0 0 0 .176.695l1.73 1.153a.534.534 0 0 0 .709-.105l.907-1.105c.364.111.736.185 1.113.221l.417 1.364a.535.535 0 0 0 .616.368l2.038-.408a.534.534 0 0 0 .426-.576l-.139-1.421c.333-.177.648-.389.943-.631l1.259.669a.533.533 0 0 0 .695-.176l1.153-1.73a.535.535 0 0 0-.105-.709l-1.104-.909c.111-.362.184-.733.22-1.11l1.365-.419a.532.532 0 0 0 .368-.615zm-5.419 1.897a2.596 2.596 0 0 1-4.702-.929c-.136-.68 0-1.372.384-1.948a2.598 2.598 0 0 1 3.597-.721c.577.384.97.97 1.106 1.648a2.57 2.57 0 0 1-.385 1.95z"/><path fill="#3AB7FC" d="M45.099 18.143a.533.533 0 0 0-.658.372l-1.465 5.292C31.787 5.692 10.841 8.627 10.629 8.66a.533.533 0 1 0 .16 1.056c.208-.031 20.375-2.862 31.216 14.55l-5.179-1.434a.534.534 0 0 0-.285 1.029c.112.031 6.506 1.813 6.623 1.813h.002c.226 0 .451-.17.512-.391l1.794-6.482a.537.537 0 0 0-.373-.658z"/><path fill="#ED7B72" d="M45 50.734c.002-.006 0-.012.001-.018a.54.54 0 0 0-.393-.626h-.001l-3.347-.814a.534.534 0 1 0-.252 1.038l2.006.488c-8.788 4.401-16.632-1.51-16.712-1.573a.534.534 0 1 0-.654.845c.064.049 4.527 3.433 10.586 3.433 2.3 0 4.832-.49 7.439-1.834l-.525 2.159a.533.533 0 1 0 1.038.252L45 50.736v-.002z"/><path fill="#515151" d="M20.446 48.301h-9.85a.536.536 0 0 0-.535.535v5.984c0 .945.77 1.714 1.715 1.714h7.49c.945 0 1.715-.769 1.715-1.714v-5.984a.536.536 0 0 0-.535-.535z"/><path fill="#FC6" d="M14.789 13.83C6.941 14.203.667 20.653.503 28.515a14.938 14.938 0 0 0 3.955 10.467c2.166 2.355 3.508 5.368 3.778 8.481a1.883 1.883 0 0 0 1.889 1.727h10.794a1.88 1.88 0 0 0 1.888-1.718c.28-3.12 1.623-6.096 3.884-8.607a14.97 14.97 0 0 0 3.85-10.032c0-8.548-7.111-15.413-15.752-15.003z"/><path fill="#666" d="m18.689 33.298-1.35-1.725-1.323 1.689c-.207.265-.656.265-.862 0l-1.337-1.708-1.476 1.758a.548.548 0 0 1-.839-.705l1.91-2.276a.549.549 0 0 1 .42-.196h.01c.165.003.32.08.421.21l1.323 1.689 1.323-1.689a.544.544 0 0 1 .431-.21c.169 0 .328.077.431.21l1.781 2.276a.549.549 0 0 1-.863.677zM16.903 49.384a.547.547 0 0 1-.547-.529c-.015-.423-.305-10.401 3.586-14.364a.548.548 0 0 1 .783.767c-3.566 3.631-3.277 13.46-3.274 13.559a.547.547 0 0 1-.529.566l-.019.001zM14.139 49.384h-.019a.548.548 0 0 1-.529-.566c.003-.099.29-9.931-3.274-13.559a.548.548 0 0 1 .783-.767c3.891 3.963 3.6 13.941 3.586 14.364a.548.548 0 0 1-.547.528z"/><path fill="#333" d="M12.021 54.816v-5.624h-1.958v5.624c0 .949.769 1.718 1.708 1.718h1.958a1.714 1.714 0 0 1-1.708-1.718z"/><path fill="#E7B95D" d="M10.477 48.301a1.908 1.908 0 0 1-.283-.836c-.27-3.117-1.608-6.123-3.776-8.481-8.527-9.269-2.436-24.34 10.079-25.132-.569-.04-1.139-.05-1.708-.02C6.938 14.202.665 20.655.505 28.516a14.974 14.974 0 0 0 3.956 10.468c2.168 2.358 3.506 5.364 3.776 8.481.09.959.869 1.698 1.828 1.728h1.958l-1.546-.892z"/><path fill="#FC6" d="M22.51 48.314c-.31.519-.879.859-1.528.879v-.36c0-.29-.24-.53-.539-.53.066.001 2.001-.006 2.067.011z"/></svg>