<svg xmlns="http://www.w3.org/2000/svg" viewBox="0 0 24 24"><path fill="#D9DCDB" d="M0 15v2c0 1.103.897 2 2 2h7.001c-.021.8-.174 2.077-.745 2.677A.981.981 0 0 1 7.5 22a.5.5 0 1 0 0 1h9a.5.5 0 1 0 0-1 .981.981 0 0 1-.756-.323c-.57-.6-.724-1.878-.745-2.677H22c1.103 0 2-.897 2-2v-2H0z"/><path fill="#010101" d="M22 18.75H2c-1.103 0-2-.897-2-2V17c0 1.103.897 2 2 2h20c1.103 0 2-.897 2-2v-.25c0 1.103-.897 2-2 2z" opacity=".1"/><path fill="#FFF" d="M7.5 22.25h9c.232 0 .418.161.475.375.01-.041.025-.08.025-.125a.5.5 0 0 0-.5-.5h-9a.5.5 0 0 0-.5.5c0 .044.014.084.025.125a.493.493 0 0 1 .475-.375z" opacity=".2"/><path fill="#818181" d="M12 18.25a.751.751 0 0 1 0-1.5.751.751 0 0 1 0 1.5z"/><linearGradient id="a" x1="11.32" x2="12.68" y1="17.183" y2="17.817" gradientUnits="userSpaceOnUse"><stop offset="0" stop-color="#FFF" stop-opacity=".2"/><stop offset="1" stop-color="#FFF" stop-opacity="0"/></linearGradient><path fill="url(#a)" d="M12 18.25a.751.751 0 0 1 0-1.5.751.751 0 0 1 0 1.5z"/><linearGradient id="b" x1="10.778" x2="14.933" y1="17.778" y2="21.934" gradientUnits="userSpaceOnUse"><stop offset="0" stop-color="#010101" stop-opacity=".1"/><stop offset="1" stop-color="#010101" stop-opacity="0"/></linearGradient><path fill="url(#b)" d="M15.744 21.677c-.57-.6-.724-1.878-.745-2.677H9L12 22h4.5a.981.981 0 0 1-.756-.323z"/><path fill="#333" d="M24 3c0-1.103-.897-2-2-2H2C.897 1 0 1.897 0 3v13h24V3z"/><path fill="#F3F3F3" d="M2 2h20c.551 0 1 .449 1 1v12H1V3c0-.551.449-1 1-1z"/><linearGradient id="c" x1=".704" x2="23.455" y1="3.414" y2="14.023" gradientUnits="userSpaceOnUse"><stop offset="0" stop-color="#FFF" stop-opacity=".2"/><stop offset="1" stop-color="#FFF" stop-opacity="0"/></linearGradient><path fill="url(#c)" d="M2 2h20c.551 0 1 .449 1 1v12H1V3c0-.551.449-1 1-1z"/><path fill="#FFF" d="M2 1.25h20c1.103 0 2 .897 2 2V3c0-1.103-.897-2-2-2H2C.897 1 0 1.897 0 3v.25c0-1.103.897-2 2-2z" opacity=".05"/><path fill="#0597CF" d="M7 8.5l2-1.751V5L5 8.5 9 12v-1.745zM17 8.5l-2-1.751V5l4 3.5-4 3.5v-1.745zM14.5 4H13l-3.5 9H11z"/><linearGradient id="d" x1="-.953" x2="24.462" y1="4.6" y2="16.452" gradientUnits="userSpaceOnUse"><stop offset="0" stop-color="#FFF" stop-opacity=".2"/><stop offset="1" stop-color="#FFF" stop-opacity="0"/></linearGradient><path fill="url(#d)" d="M22 1H2C.897 1 0 1.897 0 3v14c0 1.103.897 2 2 2h7.001c-.021.8-.174 2.077-.745 2.677A.981.981 0 0 1 7.5 22a.5.5 0 1 0 0 1h9a.5.5 0 1 0 0-1 .981.981 0 0 1-.756-.323c-.57-.6-.724-1.878-.745-2.677H22c1.103 0 2-.897 2-2V3c0-1.103-.897-2-2-2z"/></svg>