<svg xmlns="http://www.w3.org/2000/svg" data-name="Layer 1" viewBox="0 0 128 128"><path fill="#e1ebf4" d="M33.775 49.604a2.014 2.014 0 0 1-.345.486l-1.35 1.35a4.37 4.37 0 0 1-6.16 0l-1.35-1.35a2.001 2.001 0 0 1 2.83-2.83l1.35 1.35c.04.04.1.04.15.06h.2c.05-.02.11-.02.15-.06l1.35-1.35a1.998 1.998 0 0 1 2.72-.09 38.18 38.18 0 0 1 .637-13.336 27.616 27.616 0 0 1 2.245-6.747 17.805 17.805 0 0 1-5.632-4.977q-.825.675-1.74 1.29l-.06.03a28.475 28.475 0 0 1-6.44 3.21 44.473 44.473 0 0 1-9.87 2.26c.21 2.54-.32 6.79-4.21 12.1a19.926 19.926 0 0 0 28.018 15.185 24.97 24.97 0 0 1-2.493-6.581zM22 39h-4a2 2 0 0 1 0-4h4a2 2 0 0 1 0 4zm60.968-1.845a5.823 5.823 0 0 1 .617-.02 21.251 21.251 0 0 0-.496-1.012c-.148.343-.307.69-.484 1.048.122-.008.24-.006.363-.016zm36.862 1.125a8.162 8.162 0 0 1-1.31-1.44 14.184 14.184 0 0 1-2.12-7.64 18.11 18.11 0 0 1-5.46-.91 17.287 17.287 0 0 1-8.37-6.18q-.825.675-1.74 1.29l-.06.03a28.475 28.475 0 0 1-6.44 3.21c-.786.286-1.607.547-2.45.789 5.686 8.685 5.528 15.826 4.652 19.877.014-.015.024-.032.038-.046a2.004 2.004 0 0 1 2.83 0l1.35 1.35c.04.04.1.04.15.06h.2c.05-.02.11-.02.15-.06l1.35-1.35a2.001 2.001 0 1 1 2.83 2.83l-1.35 1.35a4.37 4.37 0 0 1-6.16 0l-1.35-1.35a2.014 2.014 0 0 1-.539-1.005 17.163 17.163 0 0 1-3.041 5.68 28.176 28.176 0 0 1-.123 1.918A19.982 19.982 0 0 0 119.98 38.37a1.189 1.189 0 0 1-.15-.09zM112 39h-4a2 2 0 0 1 0-4h4a2 2 0 0 1 0 4z"/><path fill="#d68751" d="M117.31 12c-5.15-6.01-10-7.97-14.25-7.97-5.54 0-10.06 3.34-12.86 5.42-.68.5-1.22.9-1.69 1.19a8.085 8.085 0 0 1-4.29.88c-2.23.043-4.239.098-5.81 3.038a33.92 33.92 0 0 1 9.977 8.238c.33.386.646.769.953 1.15a35 35 0 0 0 3.63-1.066 25.101 25.101 0 0 0 5.61-2.79l.09-.06a17.707 17.707 0 0 0 2.85-2.36 1.999 1.999 0 0 1 3.16.39 14.013 14.013 0 0 0 7.53 6.44 15.17 15.17 0 0 0 6.1.64 2.015 2.015 0 0 1 1.6.61 1.99 1.99 0 0 1 .55 1.62c-.14 1.18-.18 4.53 1.04 6.7a9.22 9.22 0 0 0 2.13-4.1c.77-3.06.98-9.46-6.32-17.97Z"/><path fill="#ffdb80" d="m97.32 70.94-4.51 5.05-5.28-5.92a12.209 12.209 0 0 0 4.46-5.11Z"/><path fill="#e1ebf4" d="M105.96 61.25 100 67.93l-5.96-6.68a24.056 24.056 0 0 0 11.92 0Z"/><path fill="#ffdb80" d="m106.82 100.34-6.82 6.82-6.82-6.82 5-23.94a2.314 2.314 0 0 0 .04-.46l1.78-2 1.78 2a2.314 2.314 0 0 0 .04.46zm5.69-30.32-5.32 5.97-4.51-5.05 5.41-6.07a12.215 12.215 0 0 0 4.42 5.15z"/><path fill="#9fa5aa" d="m105.96 61.25-2.18 2.45h-.01a23.84 23.84 0 0 1-7.54 0h-.01l-2.18-2.45a24.056 24.056 0 0 0 11.92 0Z" opacity=".5"/><path fill="#ad9359" d="m97.32 70.94-4.51 5.05-5.28-5.92a9.344 9.344 0 0 0 1.08-.79l4.2 4.71 3.62-4.05zm15.19-.92-5.32 5.97-4.51-5.05.89-1 3.62 4.05 4.25-4.77a10.255 10.255 0 0 0 1.07.8zM106.82 100.34l-6.82 6.82-6.82-6.82.35-1.65 6.47 6.47 6.47-6.47.35 1.65z" opacity=".5"/><path fill="#ffdb80" d="m25.32 70.94-4.51 5.05-5.28-5.92a12.209 12.209 0 0 0 4.46-5.11Z"/><path fill="#e1ebf4" d="M33.96 61.25 28 67.93l-5.96-6.68a24.056 24.056 0 0 0 11.92 0Z"/><path fill="#ffdb80" d="M34.82 100.34 28 107.16l-6.82-6.82 5-23.94a2.314 2.314 0 0 0 .04-.46l1.78-2 1.78 2a2.314 2.314 0 0 0 .04.46zm5.69-30.32-5.32 5.97-4.51-5.05 5.41-6.07a12.215 12.215 0 0 0 4.42 5.15z"/><path fill="#9fa5aa" d="m33.96 61.25-2.18 2.45h-.01a23.84 23.84 0 0 1-7.54 0h-.01l-2.18-2.45a24.056 24.056 0 0 0 11.92 0Z" opacity=".5"/><path fill="#ad9359" d="m25.32 70.94-4.51 5.05-5.28-5.92a9.344 9.344 0 0 0 1.08-.79l4.2 4.71 3.62-4.05zm15.19-.92-5.32 5.97-4.51-5.05.89-1 3.62 4.05 4.25-4.77a10.255 10.255 0 0 0 1.07.8zM34.82 100.34 28 107.16l-6.82-6.82.35-1.65 6.47 6.47 6.47-6.47.35 1.65z" opacity=".5"/><path fill="#2d4356" d="m70.43 66.09-1.35 1.35a4.37 4.37 0 0 1-6.16 0l-1.35-1.35a2.001 2.001 0 0 1 2.83-2.83l1.35 1.35c.04.04.1.04.15.06h.2c.05-.02.11-.02.15-.06l1.35-1.35a2.001 2.001 0 0 1 2.83 2.83zM61 53a2 2 0 0 1-2 2h-4a2 2 0 0 1 0-4h4a2.006 2.006 0 0 1 2 2zm18 0a1.993 1.993 0 0 1-2 2h-4a2 2 0 0 1 0-4h4a2 2 0 0 1 2 2zM21.994 35.004h-4a2 2 0 1 0 0 4h4a2 2 0 1 0 0-4zm86.028 4h4a2 2 0 1 0 0-4h-4a2 2 0 1 0 0 4z"/><path fill="#2d4356" d="M17.118 59.385v.49A8.134 8.134 0 0 1 8.992 68a2 2 0 1 0 0 4 12.105 12.105 0 0 0 2.63-.296l7.693 8.626a1.916 1.916 0 0 0 1.82.634l-4.1 19.623a1.999 1.999 0 0 0 .544 1.823s8.995 8.992 9.001 8.999a2.03 2.03 0 0 0 2.829 0l9.001-9a1.999 1.999 0 0 0 .544-1.822l-4.1-19.623a1.916 1.916 0 0 0 1.82-.634l7.166-8.035a27.874 27.874 0 0 1-6.578-14.48 21.133 21.133 0 0 1-1.004-1.624A19.931 19.931 0 0 1 8.242 41.003c3.89-5.314 4.418-9.56 4.215-12.1a44.993 44.993 0 0 0 9.869-2.257 29.065 29.065 0 0 0 6.44-3.211l.054-.035a22.346 22.346 0 0 0 1.746-1.284 17.86 17.86 0 0 0 5.655 4.988 15.588 15.588 0 0 1 2.264-3.345 14.558 14.558 0 0 1-5.81-5.697 2 2 0 0 0-3.165-.392 17.515 17.515 0 0 1-2.85 2.362 2.15 2.15 0 0 0-.09.058 24.979 24.979 0 0 1-5.607 2.796 43.325 43.325 0 0 1-11.069 2.26 2.008 2.008 0 0 0-1.531.974 2.04 2.04 0 0 0-.131 1.825c.062.148 1.291 3.281-1.836 8.611-1.551-2.66-3.51-8.1-1.618-17.067 1.656-7.86 4.335-7.91 7.437-7.967a8.111 8.111 0 0 0 4.285-.876c.476-.293 1.015-.692 1.697-1.198 2.8-2.074 7.313-5.417 12.856-5.417 4.248 0 9.103 1.965 14.253 7.97a32.27 32.27 0 0 1 4.817 7.251l.27-.198a66.57 66.57 0 0 1 3.024-2.146 36.774 36.774 0 0 0-5.074-7.509C34.046-7.273 20.803 2.541 15.815 6.235c-.581.43-1.082.802-1.41 1.004a5.81 5.81 0 0 1-2.264.285C7.604 7.608 2.997 8.537.864 18.664c-2.58 12.215 1.24 19.042 3.24 21.632a24.038 24.038 0 0 0 13.014 19.089zm10.877 47.78-6.823-6.82 5.002-23.938a1.973 1.973 0 0 0 .035-.46l1.786-2.001 1.785 2.001a1.97 1.97 0 0 0 .035.46l5.002 23.939zm12.511-37.143-5.325 5.971-4.506-5.053 5.412-6.068a12.19 12.19 0 0 0 4.419 5.15zM27.995 62a23.972 23.972 0 0 0 5.961-.75l-5.961 6.685-5.962-6.685a23.97 23.97 0 0 0 5.962.75zm-8.011 2.963 5.33 5.977-4.506 5.053-5.28-5.922a12.189 12.189 0 0 0 4.456-5.108zm64.242-53.44a8.111 8.111 0 0 0 4.284-.877c.476-.293 1.015-.692 1.698-1.198 2.8-2.074 7.313-5.417 12.855-5.417 4.249 0 9.103 1.965 14.253 7.97 7.297 8.513 7.092 14.916 6.32 17.975a9.32 9.32 0 0 1-2.13 4.098c-1.222-2.174-1.176-5.52-1.042-6.7a2 2 0 0 0-.548-1.624 2.023 2.023 0 0 0-1.605-.604 15.233 15.233 0 0 1-6.093-.644 14.014 14.014 0 0 1-7.533-6.44 2 2 0 0 0-3.165-.392 17.52 17.52 0 0 1-2.849 2.362l-.09.057a24.977 24.977 0 0 1-5.607 2.796 35.34 35.34 0 0 1-3.629 1.064 43.61 43.61 0 0 1 2.539 3.483 37.312 37.312 0 0 0 2.452-.786 29.066 29.066 0 0 0 6.44-3.211l.055-.035a22.357 22.357 0 0 0 1.746-1.284 17.338 17.338 0 0 0 8.371 6.18 18.336 18.336 0 0 0 5.458.91 14.102 14.102 0 0 0 2.122 7.632 7.625 7.625 0 0 0 1.31 1.44c.046.04.102.063.151.098A19.982 19.982 0 0 1 92.865 56.68a27.81 27.81 0 0 1-4.58 12.833 12.163 12.163 0 0 0 3.71-4.55l5.33 5.977-4.506 5.053-5.08-5.696a28.21 28.21 0 0 1-2.589 3.108l6.175 6.924a1.916 1.916 0 0 0 1.82.634l-4.1 19.623a1.999 1.999 0 0 0 .545 1.823l9.001 8.999a2 2 0 0 0 2.829 0l9-9a1.999 1.999 0 0 0 .545-1.822l-4.1-19.623a1.916 1.916 0 0 0 1.82-.634l7.716-8.652a12.09 12.09 0 0 0 2.732.322 2 2 0 1 0 0-4 8.134 8.134 0 0 1-8.126-8.123v-.556a24.015 24.015 0 0 0 13.002-21.317v-.817a12.757 12.757 0 0 0 3.507-6.232c.96-3.809 1.308-11.674-7.162-21.555-14.298-16.672-27.541-6.858-32.528-3.164-.581.43-1.082.802-1.41 1.004a5.81 5.81 0 0 1-2.265.285c-3.49.064-7.016.648-9.431 5.514a23.714 23.714 0 0 1 3.686 1.537c1.572-2.957 3.585-3.011 5.82-3.053zm9.818 49.727a24.074 24.074 0 0 0 11.923 0l-5.962 6.685zm5.961 45.915-6.822-6.82 5.002-23.938a1.97 1.97 0 0 0 .035-.46l1.785-2.001 1.786 2.001a1.974 1.974 0 0 0 .035.46l5.002 23.939zm12.512-37.143-5.325 5.971-4.507-5.053 5.412-6.068a12.19 12.19 0 0 0 4.42 5.15z"/><path fill="#9fa5aa" d="M35.445 54.553A19.943 19.943 0 0 1 8.56 40.56c-.1.14-.2.29-.31.44a19.926 19.926 0 0 0 28.018 15.185 23.31 23.31 0 0 1-.823-1.632Z" opacity=".5"/><path fill="#d68751" d="M38.443 23.731c3.047-3.425 6.929-4.137 10.628-4.21 0 0 .514-.011.714-.019.1-.073.227-.169.343-.255A32.23 32.23 0 0 0 45.31 12c-5.15-6.01-10-7.97-14.25-7.97-5.54 0-10.06 3.34-12.86 5.42-.68.5-1.22.9-1.69 1.19a8.085 8.085 0 0 1-4.29.88c-3.1.06-5.78.11-7.44 7.97-1.89 8.96.07 14.4 1.62 17.06 3.13-5.33 1.9-8.46 1.84-8.61a2.03 2.03 0 0 1 1.66-2.8 43.126 43.126 0 0 0 11.07-2.26 25.101 25.101 0 0 0 5.61-2.79l.09-.06a17.707 17.707 0 0 0 2.85-2.36 1.999 1.999 0 0 1 3.16.39 14.578 14.578 0 0 0 5.763 5.671Z"/><path fill="#e5d0c3" d="M45.31 14a34.517 34.517 0 0 1 3.919 5.517c.167-.004.425-.01.556-.015.1-.073.227-.169.343-.255A32.195 32.195 0 0 0 45.31 12c-5.15-6.01-10-7.97-14.25-7.97-5.54 0-10.06 3.34-12.86 5.42-.68.5-1.22.9-1.69 1.19a8.085 8.085 0 0 1-4.29.88c-3.1.06-5.78.11-7.44 7.97a33.122 33.122 0 0 0-.76 8.02 35.472 35.472 0 0 1 .76-6.02c1.66-7.86 4.34-7.91 7.44-7.97a8.085 8.085 0 0 0 4.29-.88c.47-.29 1.01-.69 1.69-1.19 2.8-2.08 7.32-5.42 12.86-5.42 4.25 0 9.1 1.96 14.25 7.97Z" opacity=".3"/><path fill="#9fa5aa" d="M119.85 38.29a19.957 19.957 0 0 1-26.834 16.44c-.01.012-.017.025-.026.036a28.176 28.176 0 0 1-.123 1.917A19.982 19.982 0 0 0 119.98 38.37a.91.91 0 0 1-.13-.08Z" opacity=".5"/><path fill="#e5d0c3" d="M117.31 12c-5.15-6.01-10-7.97-14.25-7.97-5.54 0-10.06 3.34-12.86 5.42-.68.5-1.22.9-1.69 1.19a8.085 8.085 0 0 1-4.29.88c-2.23.043-4.239.098-5.81 3.038.333.173.665.358.996.549 1.39-1.513 3.032-1.552 4.814-1.587a8.085 8.085 0 0 0 4.29-.88c.47-.29 1.01-.69 1.69-1.19 2.8-2.08 7.32-5.42 12.86-5.42 4.25 0 9.1 1.96 14.25 7.97 4.88 5.69 6.4 10.44 6.64 13.88.26-3.47-.72-8.98-6.64-15.88Z" opacity=".3"/><path fill="#2d4356" d="M33.32 47.174a1.995 1.995 0 0 0-2.723.086l-1.355 1.354a.35.35 0 0 1-.494 0l-1.355-1.354a2 2 0 1 0-2.828 2.827l1.354 1.356a4.357 4.357 0 0 0 6.151 0l1.355-1.356a1.978 1.978 0 0 0 .349-.488 28.874 28.874 0 0 1-.454-2.425zm72.131.085a2 2 0 0 0-2.828 0l-1.355 1.355a.35.35 0 0 1-.494 0l-1.355-1.354a2 2 0 0 0-2.828 0c-.025.024-.042.053-.066.079-.044.203-.09.401-.136.588-.097.384-.228.752-.348 1.126a1.99 1.99 0 0 0 .55 1.034l1.354 1.355a4.357 4.357 0 0 0 6.152 0l1.354-1.355a2 2 0 0 0 0-2.828zM85.35 25.4c-14.3-16.68-27.54-6.86-32.53-3.17-.58.43-1.08.8-1.41 1.01a5.882 5.882 0 0 1-2.26.28c-4.54.09-9.15 1.02-11.28 11.14-2.58 12.22 1.24 19.04 3.24 21.63a24.035 24.035 0 0 0 13.01 19.09v.49A8.134 8.134 0 0 1 46 84a2 2 0 0 0 0 4 12.047 12.047 0 0 0 2.63-.3l7.69 8.63a2.016 2.016 0 0 0 1.49.67 1.857 1.857 0 0 0 .33-.04l-4.1 19.62a2.027 2.027 0 0 0 .54 1.83l9.01 9a2.004 2.004 0 0 0 2.82 0l9.01-9a2.027 2.027 0 0 0 .54-1.83l-4.1-19.62a1.857 1.857 0 0 0 .33.04 2.016 2.016 0 0 0 1.49-.67l7.72-8.66a11.725 11.725 0 0 0 2.73.33 2 2 0 0 0 0-4A8.143 8.143 0 0 1 76 75.87v-.55A24.012 24.012 0 0 0 89 54v-.82a12.712 12.712 0 0 0 3.51-6.23c.96-3.81 1.31-11.67-7.16-21.55zM57.81 91.99l-5.28-5.92a12.209 12.209 0 0 0 4.46-5.11l5.33 5.98zm1.23-14.74a24.056 24.056 0 0 0 11.92 0L65 83.93zM65 123.16l-6.82-6.82 5-23.94a2.314 2.314 0 0 0 .04-.46l1.78-2 1.78 2a2.314 2.314 0 0 0 .04.46l5 23.94zm12.51-37.14-5.32 5.97-4.51-5.05 5.41-6.07a12.215 12.215 0 0 0 4.42 5.15zM65 74a20.003 20.003 0 0 1-19.75-17c3.89-5.31 4.42-9.56 4.21-12.1a44.473 44.473 0 0 0 9.87-2.26 28.475 28.475 0 0 0 6.44-3.21l.06-.03q.915-.615 1.74-1.29a17.287 17.287 0 0 0 8.37 6.18 18.11 18.11 0 0 0 5.46.91 14.184 14.184 0 0 0 2.12 7.64 8.162 8.162 0 0 0 1.31 1.44 1.189 1.189 0 0 0 .15.09A20.012 20.012 0 0 1 65 74zm23.63-28.03a9.22 9.22 0 0 1-2.13 4.1c-1.22-2.17-1.18-5.52-1.04-6.7a1.99 1.99 0 0 0-.55-1.62 2.015 2.015 0 0 0-1.6-.61 15.17 15.17 0 0 1-6.1-.64 14.013 14.013 0 0 1-7.53-6.44 1.999 1.999 0 0 0-3.16-.39 17.707 17.707 0 0 1-2.85 2.36l-.09.06a25.101 25.101 0 0 1-5.61 2.79 43.126 43.126 0 0 1-11.07 2.26 2.03 2.03 0 0 0-1.66 2.8c.06.15 1.29 3.28-1.84 8.61-1.55-2.66-3.51-8.1-1.62-17.06 1.66-7.86 4.34-7.91 7.44-7.97a8.085 8.085 0 0 0 4.29-.88c.47-.29 1.01-.69 1.69-1.19 2.8-2.08 7.32-5.42 12.86-5.42 4.25 0 9.1 1.96 14.25 7.97 7.3 8.51 7.09 14.91 6.32 17.97z"/><path fill="#ffdb80" d="m62.32 86.94-4.51 5.05-5.28-5.92a12.209 12.209 0 0 0 4.46-5.11Z"/><path fill="#e1ebf4" d="M70.96 77.25 65 83.93l-5.96-6.68a24.056 24.056 0 0 0 11.92 0Z"/><path fill="#ffdb80" d="M71.82 116.34 65 123.16l-6.82-6.82 5-23.94a2.314 2.314 0 0 0 .04-.46l1.78-2 1.78 2a2.314 2.314 0 0 0 .04.46zm5.69-30.32-5.32 5.97-4.51-5.05 5.41-6.07a12.215 12.215 0 0 0 4.42 5.15z"/><path fill="#e1ebf4" d="M84.83 54.28a8.162 8.162 0 0 1-1.31-1.44 14.184 14.184 0 0 1-2.12-7.64 18.11 18.11 0 0 1-5.46-.91 17.287 17.287 0 0 1-8.37-6.18q-.825.675-1.74 1.29l-.06.03a28.475 28.475 0 0 1-6.44 3.21 44.473 44.473 0 0 1-9.87 2.26c.21 2.54-.32 6.79-4.21 12.1a19.978 19.978 0 0 0 39.73-2.63 1.189 1.189 0 0 1-.15-.09ZM59 55h-4a2 2 0 0 1 0-4h4a2 2 0 0 1 0 4Zm11.43 11.09-1.35 1.35a4.37 4.37 0 0 1-6.16 0l-1.35-1.35a2.001 2.001 0 0 1 2.83-2.83l1.35 1.35c.04.04.1.04.15.06h.2c.05-.02.11-.02.15-.06l1.35-1.35a2.001 2.001 0 0 1 2.83 2.83ZM77 55h-4a2 2 0 0 1 0-4h4a2 2 0 0 1 0 4Z"/><path fill="#d68751" d="M88.63 45.97a9.22 9.22 0 0 1-2.13 4.1c-1.22-2.17-1.18-5.52-1.04-6.7a1.99 1.99 0 0 0-.55-1.62 2.015 2.015 0 0 0-1.6-.61 15.17 15.17 0 0 1-6.1-.64 14.013 14.013 0 0 1-7.53-6.44 1.999 1.999 0 0 0-3.16-.39 17.707 17.707 0 0 1-2.85 2.36l-.09.06a25.101 25.101 0 0 1-5.61 2.79 43.126 43.126 0 0 1-11.07 2.26 2.03 2.03 0 0 0-1.66 2.8c.06.15 1.29 3.28-1.84 8.61-1.55-2.66-3.51-8.1-1.62-17.06 1.66-7.86 4.34-7.91 7.44-7.97a8.085 8.085 0 0 0 4.29-.88c.47-.29 1.01-.69 1.69-1.19 2.8-2.08 7.32-5.42 12.86-5.42 4.25 0 9.1 1.96 14.25 7.97 7.3 8.51 7.09 14.91 6.32 17.97Z"/><path fill="#e5d0c3" d="M88.95 43.88c-.24-3.44-1.76-8.19-6.64-13.88-5.15-6.01-10-7.97-14.25-7.97-5.54 0-10.06 3.34-12.86 5.42-.68.5-1.22.9-1.69 1.19a8.085 8.085 0 0 1-4.29.88c-3.1.06-5.78.11-7.44 7.97a35.472 35.472 0 0 0-.76 6.02 33.122 33.122 0 0 1 .76-8.02c1.66-7.86 4.34-7.91 7.44-7.97a8.085 8.085 0 0 0 4.29-.88c.47-.29 1.01-.69 1.69-1.19 2.8-2.08 7.32-5.42 12.86-5.42 4.25 0 9.1 1.96 14.25 7.97 5.92 6.9 6.9 12.41 6.64 15.88Z" opacity=".3"/><path fill="#9fa5aa" d="M84.98 54.37A19.978 19.978 0 0 1 45.25 57c.11-.15.21-.3.31-.44a19.97 19.97 0 0 0 39.29-2.27.91.91 0 0 0 .13.08zM70.96 77.25l-2.18 2.45h-.01a23.84 23.84 0 0 1-7.54 0h-.01l-2.18-2.45a24.056 24.056 0 0 0 11.92 0z" opacity=".5"/><path fill="#ad9359" d="m62.32 86.94-4.51 5.05-5.28-5.92a9.344 9.344 0 0 0 1.08-.79l4.2 4.71 3.62-4.05zm15.19-.92-5.32 5.97-4.51-5.05.89-1 3.62 4.05 4.25-4.77a10.255 10.255 0 0 0 1.07.8zM71.82 116.34 65 123.16l-6.82-6.82.35-1.65 6.47 6.47 6.47-6.47.35 1.65z" opacity=".5"/></svg>