<svg xmlns="http://www.w3.org/2000/svg" viewBox="0 0 64 64"><path fill="#2e79be" d="M39.3 21c0 1.5-1.3 2.8-2.8 2.8-1.6 0-2.8-1.3-2.8-2.8 0-1.6 1.2-2.9 2.9-2.9.7 0 1.4.3 2 .8.4.6.7 1.4.7 2.1zM44 45.6c-.5.2-1 .3-1.5.3h-9c-1.7 0-3-1.2-3-2.7 0-1.6 1.2-2.8 2.9-2.9H35.2V37v-2.8c0-.4-.4-.9-.8-1-1.6-.4-2.5-1.6-2.3-3 .2-1.6 1.3-2.6 3-2.6h2.8c1.8 0 3 1.2 3 3v9.7h1.9c1.4.1 2.5.9 2.7 2.3.3 1.3-.3 2.5-1.5 3z"/><path fill="#2d3e50" d="M24.7 44.9c-.2-.9-.6-1.6-1.2-2.1-.6-.6-1.4-.9-2.4-1h-.2c-.4-.1-.9-.1-1.5 0-1.4.2-2.9.4-4.3.7-.7-.2-5.3-10.5-.8-20.7 1.2.1 2.5.2 3.9.3.7 0 1.4-.1 2.2-.2 1.6-.4 2.6-1.4 3-3 .2-.8.3-1.6.4-2.3L24 15c.3-2.1.6-4.4.9-6.6.2-1.4-.3-2.4-.8-3.1 0-.2-.1-.3-.2-.4-.3-.3-.7-.6-1.2-.8-.9-.4-1.9-.4-2.8 0-6.2 2.6-11.3 7.2-14.5 13.1-2.5 4.4-3.9 9.4-3.9 14.7C1.5 38.7 3.8 45 7.6 50c3.3 4.4 7.9 7.9 13.1 10 .8.3 1.8.3 2.6 0 .7-.3 1.4-.6 1.9-.9.1-.1.2-.1.3-.2 1.3-.9 1.8-2.3 1.5-4-.8-3.6-1.5-6.8-2.3-10z"/><path fill="#2e79be" d="M32.1 1.6c-1.2 0-2.4.1-3.6.2 1.3 1.5 2 3.3 2.1 5.3.5 0 1-.1 1.5-.1C45.8 7.1 57 18.3 57 32c0 13.6-11 24.7-24.5 24.9-.2 2.1-1.2 4-2.7 5.4.7.1 1.5.1 2.2.1 16.8 0 30.4-13.6 30.4-30.4.1-16.8-13.5-30.4-30.3-30.4z"/></svg>